<?xml version="1.0" encoding="UTF-8"?>
<!DOCTYPE svg PUBLIC "-//W3C//DTD SVG 1.1//EN" "http://www.w3.org/Graphics/SVG/1.1/DTD/svg11.dtd">
<svg xmlns="http://www.w3.org/2000/svg" version="1.1" width="500px" height="500px" style="shape-rendering:geometricPrecision; text-rendering:geometricPrecision; image-rendering:optimizeQuality; fill-rule:evenodd; clip-rule:evenodd" xmlns:xlink="http://www.w3.org/1999/xlink">
<g><path style="opacity:1" fill="#fefefe" d="M -0.5,-0.5 C 166.167,-0.5 332.833,-0.5 499.5,-0.5C 499.5,166.167 499.5,332.833 499.5,499.5C 332.833,499.5 166.167,499.5 -0.5,499.5C -0.5,332.833 -0.5,166.167 -0.5,-0.5 Z"/></g>
<g><path style="opacity:1" fill="#9bceef" d="M 234.5,84.5 C 236.527,84.3379 238.527,84.5045 240.5,85C 236.696,86.9525 232.696,87.6191 228.5,87C 230.502,85.9808 232.502,85.1475 234.5,84.5 Z"/></g>
<g><path style="opacity:1" fill="#f14a29" d="M 236.5,109.5 C 237.75,109.577 238.583,110.244 239,111.5C 241.553,119.824 244.886,127.824 249,135.5C 253.295,140.895 258.795,142.729 265.5,141C 273.588,138.705 281.088,135.205 288,130.5C 288.167,130.833 288.333,131.167 288.5,131.5C 278.463,139.61 268.296,147.61 258,155.5C 257.832,165.849 257.332,176.183 256.5,186.5C 252.75,173.081 247.916,160.081 242,147.5C 239.969,134.861 238.136,122.194 236.5,109.5 Z"/></g>
<g><path style="opacity:1" fill="#89c73e" d="M 204.5,142.5 C 206.284,143.574 207.451,145.24 208,147.5C 211.673,158.176 215.34,168.843 219,179.5C 228.961,182.394 238.795,185.728 248.5,189.5C 234.448,190.016 220.448,191.016 206.5,192.5C 193.776,190.825 181.443,188.158 169.5,184.5C 178.933,184.013 188.266,182.847 197.5,181C 200.539,179.969 203.039,178.135 205,175.5C 206.79,171.005 207.624,166.339 207.5,161.5C 206.979,155.086 205.979,148.753 204.5,142.5 Z"/></g>
<g><path style="opacity:1" fill="#ed1c92" d="M 326.5,151.5 C 327.873,151.343 329.207,151.51 330.5,152C 323.039,157.793 315.872,163.959 309,170.5C 305.597,176.973 305.931,183.307 310,189.5C 314.633,195.135 319.633,200.468 325,205.5C 325.667,206.167 325.667,206.833 325,207.5C 314.215,199.541 303.048,192.208 291.5,185.5C 282.038,188.099 272.704,191.099 263.5,194.5C 263.167,194.167 262.833,193.833 262.5,193.5C 275.007,184.733 287.007,175.233 298.5,165C 308.047,160.725 317.38,156.225 326.5,151.5 Z"/></g>
<g><path style="opacity:1" fill="#f14928" d="M 263.5,155.5 C 272.658,153.835 276.825,157.501 276,166.5C 271,171.833 266,171.833 261,166.5C 258.584,162.078 259.417,158.411 263.5,155.5 Z"/></g>
<g><path style="opacity:1" fill="#5db1e6" d="M 211.5,319.5 C 213.134,318.839 214.967,318.506 217,318.5C 223.837,319.204 230.67,319.871 237.5,320.5C 261.312,321.88 283.312,316.38 303.5,304C 291.798,308.498 279.798,312.498 267.5,316C 260.904,317.442 254.237,318.276 247.5,318.5C 236.731,318.941 226.064,318.274 215.5,316.5C 199.777,313.138 185.777,306.305 173.5,296C 160.167,284.497 149.333,270.997 141,255.5C 136.262,244.045 136.929,243.712 143,254.5C 143.811,255.96 144.645,256.293 145.5,255.5C 141.627,248.263 137.461,241.93 133,236.5C 128.186,223.813 126.853,210.813 129,197.5C 129.667,199.5 130.333,201.5 131,203.5C 131.746,198.958 131.579,194.458 130.5,190C 132.024,188.806 133.19,187.306 134,185.5C 134.841,171.474 139.008,158.474 146.5,146.5C 145.833,146.167 145.167,145.833 144.5,145.5C 161.077,120.831 185.41,101.664 217.5,88C 220.167,87.3333 222.833,87.3333 225.5,88C 186.294,103.165 158.96,127.998 143.5,162.5C 134.225,183.824 132.391,205.824 138,228.5C 142.197,243.458 148.864,257.124 158,269.5C 158.333,268.833 158.667,268.167 159,267.5C 168.714,278.349 180.047,287.015 193,293.5C 193.667,294.167 193.667,294.833 193,295.5C 182.193,289.859 172.36,282.859 163.5,274.5C 165.264,277.822 167.93,280.989 171.5,284C 188.19,298 207.523,305.333 229.5,306C 274.982,310.672 310.482,294.172 336,256.5C 341.901,244.115 347.401,231.615 352.5,219C 354.5,218.333 356.5,218.333 358.5,219C 361.984,221.267 365.651,221.767 369.5,220.5C 369.833,221.667 370.167,222.833 370.5,224C 363.783,250.606 350.283,273.106 330,291.5C 329.667,290.833 329.333,290.167 329,289.5C 324.923,292.788 320.756,295.955 316.5,299C 316.833,299.167 317.167,299.333 317.5,299.5C 319.24,297.789 321.24,296.956 323.5,297C 317.151,302.66 310.151,306.993 302.5,310C 303.833,309 305.167,308 306.5,307C 296.61,310.933 286.61,314.933 276.5,319C 279.882,319.159 283.215,318.659 286.5,317.5C 289.063,317.737 289.063,318.237 286.5,319C 278.475,321.67 270.309,322.837 262,322.5C 250.377,324.199 238.71,325.532 227,326.5C 224.3,326.609 221.8,326.109 219.5,325C 223.167,324.667 226.833,324.333 230.5,324C 224.107,322.689 217.773,321.189 211.5,319.5 Z"/></g>
<g><path style="opacity:1" fill="#89c73e" d="M 226.5,163.5 C 237.178,164.027 239.845,168.86 234.5,178C 224.987,182.168 220.82,179.001 222,168.5C 223.707,166.963 225.207,165.296 226.5,163.5 Z"/></g>
<g><path style="opacity:1" fill="#83c3ec" d="M 132.5,168.5 C 133.124,168.917 133.457,169.584 133.5,170.5C 132.025,174.398 130.858,178.398 130,182.5C 129.333,180.167 129.333,177.833 130,175.5C 131.136,173.257 131.97,170.924 132.5,168.5 Z"/></g>
<g><path style="opacity:1" fill="#ed1d92" d="M 285.5,188.5 C 294.153,187.987 297.653,191.987 296,200.5C 293.928,205.143 290.428,206.643 285.5,205C 278.884,199.552 278.884,194.052 285.5,188.5 Z"/></g>
<g><path style="opacity:1" fill="#59b0e6" d="M 247.5,199.5 C 248.239,199.369 248.906,199.536 249.5,200C 243.552,213.622 239.385,227.788 237,242.5C 231.404,252.7 225.571,262.7 219.5,272.5C 219.167,272.167 218.833,271.833 218.5,271.5C 220.643,264.927 222.477,258.26 224,251.5C 226.884,241.772 223.718,234.939 214.5,231C 206.707,228.291 198.707,226.458 190.5,225.5C 203.818,224.455 217.152,223.622 230.5,223C 236.298,215.226 241.965,207.392 247.5,199.5 Z"/></g>
<g><path style="opacity:1" fill="#9b2491" d="M 257.5,201.5 C 269.6,210.393 282.267,218.56 295.5,226C 303.352,234.351 311.018,242.851 318.5,251.5C 317.998,252.521 317.332,252.688 316.5,252C 310.003,246.915 303.003,242.582 295.5,239C 292.262,237.632 288.928,237.299 285.5,238C 281.421,240.075 277.921,242.908 275,246.5C 271.397,252.707 268.064,259.04 265,265.5C 267.35,252.603 270.85,239.937 275.5,227.5C 269.059,219.073 263.059,210.406 257.5,201.5 Z"/></g>
<g><path style="opacity:1" fill="#58afe5" d="M 221.5,203.5 C 230.535,202.589 234.368,206.589 233,215.5C 228.522,222.072 223.855,222.072 219,215.5C 216.511,210.757 217.345,206.757 221.5,203.5 Z"/></g>
<g><path style="opacity:1" fill="#9d2893" d="M 259.5,219.5 C 269.059,218.546 272.559,222.546 270,231.5C 264.921,236.726 259.921,236.726 255,231.5C 253.309,226.131 254.809,222.131 259.5,219.5 Z"/></g>
<g><path style="opacity:1" fill="#eef6fc" d="M 349.5,253.5 C 350.573,254.251 350.74,255.251 350,256.5C 344.618,267.893 336.951,277.56 327,285.5C 327.398,283.369 328.398,281.369 330,279.5C 338.223,272.02 344.723,263.354 349.5,253.5 Z"/></g>
<g><path style="opacity:1" fill="#e8f3fb" d="M 237.5,320.5 C 240.833,319.833 244.167,319.167 247.5,318.5C 254.237,318.276 260.904,317.442 267.5,316C 279.798,312.498 291.798,308.498 303.5,304C 283.312,316.38 261.312,321.88 237.5,320.5 Z"/></g>
<g><path style="opacity:1" fill="#9aceef" d="M 215.5,316.5 C 226.064,318.274 236.731,318.941 247.5,318.5C 244.167,319.167 240.833,319.833 237.5,320.5C 230.67,319.871 223.837,319.204 217,318.5C 214.967,318.506 213.134,318.839 211.5,319.5C 210.711,319.217 210.044,318.717 209.5,318C 211.708,317.809 213.708,317.309 215.5,316.5 Z"/></g>
<g><path style="opacity:1" fill="#5bb1e6" d="M 239.5,351.5 C 249.529,349.776 256.696,353.443 261,362.5C 262.407,370.284 259.907,376.45 253.5,381C 237.246,385.404 229.079,379.237 229,362.5C 231.357,357.645 234.857,353.979 239.5,351.5 Z"/></g>
<g><path style="opacity:1" fill="#59b0e6" d="M 207.5,351.5 C 212.833,351.5 218.167,351.5 223.5,351.5C 223.945,360.94 223.445,370.274 222,379.5C 218.319,382.36 214.152,383.193 209.5,382C 204.999,380.183 204.499,377.683 208,374.5C 211.133,377.867 214.466,378.201 218,375.5C 218.5,369.175 218.666,362.842 218.5,356.5C 214.833,356.5 211.167,356.5 207.5,356.5C 207.5,354.833 207.5,353.167 207.5,351.5 Z"/></g>
<g><path style="opacity:1" fill="#5fb2e6" d="M 266.5,351.5 C 272.509,351.334 278.509,351.501 284.5,352C 291.565,355.726 292.232,360.392 286.5,366C 291.609,369.366 292.776,373.866 290,379.5C 288.581,380.46 287.081,381.293 285.5,382C 279.175,382.5 272.842,382.666 266.5,382.5C 266.5,372.167 266.5,361.833 266.5,351.5 Z"/></g>
<g><path style="opacity:1" fill="#fbfdfe" d="M 240.5,356.5 C 251.989,355.155 256.823,360.155 255,371.5C 248.333,380.833 241.667,380.833 235,371.5C 233.087,364.97 234.92,359.97 240.5,356.5 Z"/></g>
<g><path style="opacity:1" fill="#fcfdfe" d="M 272.5,356.5 C 275.85,356.335 279.183,356.502 282.5,357C 285.167,359.333 285.167,361.667 282.5,364C 279.183,364.498 275.85,364.665 272.5,364.5C 272.5,361.833 272.5,359.167 272.5,356.5 Z"/></g>
<g><path style="opacity:1" fill="#fcfdfe" d="M 272.5,369.5 C 276.514,369.334 280.514,369.501 284.5,370C 287.371,372.84 287.037,375.174 283.5,377C 279.848,377.499 276.182,377.665 272.5,377.5C 272.5,374.833 272.5,372.167 272.5,369.5 Z"/></g>
<g><path style="opacity:1" fill="#b053a8" d="M 206.5,401.5 C 209.962,400.518 213.629,400.185 217.5,400.5C 217.785,402.288 217.452,403.955 216.5,405.5C 215.571,404.311 215.238,402.978 215.5,401.5C 213.833,401.5 212.167,401.5 210.5,401.5C 210.105,404.523 211.105,405.523 213.5,404.5C 213.833,405.167 214.167,405.833 214.5,406.5C 213.167,407.5 211.833,408.5 210.5,409.5C 210.818,410.647 211.484,411.481 212.5,412C 210.5,412.667 208.5,412.667 206.5,412C 207.72,410.475 208.387,408.641 208.5,406.5C 208.444,404.36 207.777,402.694 206.5,401.5 Z"/></g>
<g><path style="opacity:1" fill="#a23499" d="M 221.5,401.5 C 222.946,400.387 224.613,400.22 226.5,401C 225.873,402.738 225.54,404.571 225.5,406.5C 225.613,408.641 226.28,410.475 227.5,412C 225.5,412.667 223.5,412.667 221.5,412C 222.72,410.475 223.387,408.641 223.5,406.5C 223.444,404.36 222.777,402.694 221.5,401.5 Z"/></g>
<g><path style="opacity:1" fill="#a03097" d="M 231.5,401.5 C 232.601,400.402 233.934,400.235 235.5,401C 237.458,403.748 239.291,406.582 241,409.5C 241.987,406.303 241.487,403.47 239.5,401C 241.167,400.333 242.833,400.333 244.5,401C 242.935,404.555 241.935,408.388 241.5,412.5C 239.345,409.538 237.179,406.538 235,403.5C 234.013,406.697 234.513,409.53 236.5,412C 234.833,412.667 233.167,412.667 231.5,412C 232.72,410.475 233.387,408.641 233.5,406.5C 233.444,404.36 232.777,402.694 231.5,401.5 Z"/></g>
<g><path style="opacity:1" fill="#a944a0" d="M 274.5,405.5 C 274.5,404.167 274.5,402.833 274.5,401.5C 272.5,401.5 270.5,401.5 268.5,401.5C 268.5,402.833 268.5,404.167 268.5,405.5C 269.822,405.67 270.989,405.337 272,404.5C 272.667,405.833 272.667,407.167 272,408.5C 270.989,407.663 269.822,407.33 268.5,407.5C 268.5,408.833 268.5,410.167 268.5,411.5C 270.5,411.5 272.5,411.5 274.5,411.5C 274.263,410.209 274.596,409.209 275.5,408.5C 275.5,409.833 275.5,411.167 275.5,412.5C 271.818,412.665 268.152,412.499 264.5,412C 265.72,410.475 266.387,408.641 266.5,406.5C 266.46,404.571 266.127,402.738 265.5,401C 268.817,400.502 272.15,400.335 275.5,400.5C 275.784,402.415 275.451,404.081 274.5,405.5 Z"/></g>
<g><path style="opacity:1" fill="#aa45a1" d="M 248.5,401.5 C 254.04,399.265 258.04,400.932 260.5,406.5C 260.255,409.168 258.921,411.002 256.5,412C 253.833,412.667 251.167,412.667 248.5,412C 249.72,410.475 250.387,408.641 250.5,406.5C 250.444,404.36 249.777,402.694 248.5,401.5 Z"/></g>
<g><path style="opacity:1" fill="#fcf9fc" d="M 252.5,402.5 C 257.213,402.468 258.713,404.801 257,409.5C 255.89,411.037 254.39,411.703 252.5,411.5C 252.5,408.5 252.5,405.5 252.5,402.5 Z"/></g>
<g><path style="opacity:1" fill="#ead0e8" d="M 274.5,405.5 C 273.957,405.56 273.624,405.893 273.5,406.5C 274.243,407.182 274.909,407.849 275.5,408.5C 274.596,409.209 274.263,410.209 274.5,411.5C 272.5,411.5 270.5,411.5 268.5,411.5C 268.5,410.167 268.5,408.833 268.5,407.5C 269.822,407.33 270.989,407.663 272,408.5C 272.667,407.167 272.667,405.833 272,404.5C 270.989,405.337 269.822,405.67 268.5,405.5C 268.5,404.167 268.5,402.833 268.5,401.5C 270.5,401.5 272.5,401.5 274.5,401.5C 274.5,402.833 274.5,404.167 274.5,405.5 Z"/></g>
<g><path style="opacity:1" fill="#aa44a1" d="M 280.5,401.5 C 282.966,400.366 285.633,400.199 288.5,401C 291.167,403 291.167,405 288.5,407C 289.147,408.609 289.98,410.109 291,411.5C 292.043,407.774 292.543,408.107 292.5,412.5C 288.849,412.838 287.183,411.172 287.5,407.5C 286.5,407.5 285.5,407.5 284.5,407.5C 284.227,409.451 284.893,410.951 286.5,412C 284.5,412.667 282.5,412.667 280.5,412C 281.72,410.475 282.387,408.641 282.5,406.5C 282.444,404.36 281.777,402.694 280.5,401.5 Z"/></g>
<g><path style="opacity:1" fill="#fefdfe" d="M 284.5,402.5 C 285.833,402.5 287.167,402.5 288.5,402.5C 288.5,403.5 288.5,404.5 288.5,405.5C 287.167,405.5 285.833,405.5 284.5,405.5C 284.5,404.5 284.5,403.5 284.5,402.5 Z"/></g>
</svg>
